<?xml version="1.0"?>
<svg xmlns="http://www.w3.org/2000/svg" xmlns:xlink="http://www.w3.org/1999/xlink" version="1.1" id="Capa_1" x="0px" y="0px" viewBox="0 0 56 56" style="enable-background:new 0 0 56 56;" xml:space="preserve" width="512px" height="512px" class=""><g><g>
	<g>
		<path style="fill:#FF0068" d="M44.472,0H31.294L6.848,24.367l23.734,23.785L55,23.814V10.504L44.472,0z M43.015,14.87    c-1.621,0-2.935-1.314-2.935-2.935S41.394,9,43.015,9c1.621,0,2.935,1.314,2.935,2.935S44.636,14.87,43.015,14.87z" data-original="#E7D4B1" class="" data-old_color="#FF0060"/>
		<polygon style="fill:#D3C2A4;" points="6.877,24.354 1,30.215 24.734,54 30.637,48.113   " data-original="#D3C2A4" class=""/>
		<path style="fill:#CBB292;" d="M43.015,9c1.621,0,2.935,1.314,2.935,2.935s-1.314,2.935-2.935,2.935    c-1.621,0-2.935-1.314-2.935-2.935S41.394,9,43.015,9 M43.015,5c-3.824,0-6.935,3.111-6.935,6.935s3.111,6.935,6.935,6.935    c3.824,0,6.935-3.111,6.935-6.935S46.839,5,43.015,5L43.015,5z" data-original="#CBB292"/>
	</g>
	<g>
		<polygon style="fill:#FFC100" points="38,34 41.708,41.242 50,42.403 44,48.04 45.416,56 38,52.242 30.584,56 32,48.04     26,42.403 34.292,41.242   " data-original="#EFC41A" class="active-path" data-old_color="#FFC900"/>
	</g>
</g></g> </svg>
