<?xml version="1.0" encoding="iso-8859-1"?>
<!-- Generator: Adobe Illustrator 19.0.0, SVG Export Plug-In . SVG Version: 6.00 Build 0)  -->
<svg version="1.1" id="Capa_1" xmlns="http://www.w3.org/2000/svg" xmlns:xlink="http://www.w3.org/1999/xlink" x="0px" y="0px"
	 viewBox="0 0 512 512" style="enable-background:new 0 0 512 512;" xml:space="preserve">
<path style="fill:#3B8C6A;" d="M497,512H356c-8.284,0-15-6.716-15-15V97c0-8.284,6.716-15,15-15h141c8.284,0,15,6.716,15,15v400
	C512,505.284,505.284,512,497,512z"/>
<g>
	<path style="fill:#FFB23D;" d="M462,193h-41c-8.284,0-15-6.716-15-15v-21c0-8.284,6.716-15,15-15h41c8.284,0,15,6.716,15,15v21
		C477,186.284,470.284,193,462,193z"/>
	<path style="fill:#FFB23D;" d="M462,275h-41c-8.284,0-15-6.716-15-15v-21c0-8.284,6.716-15,15-15h41c8.284,0,15,6.716,15,15v21
		C477,268.284,470.284,275,462,275z"/>
	<path style="fill:#FFB23D;" d="M462,357h-41c-8.284,0-15-6.716-15-15v-21c0-8.284,6.716-15,15-15h41c8.284,0,15,6.716,15,15v21
		C477,350.284,470.284,357,462,357z"/>
	<path style="fill:#FFB23D;" d="M462,439h-41c-8.284,0-15-6.716-15-15v-21c0-8.284,6.716-15,15-15h41c8.284,0,15,6.716,15,15v21
		C477,432.284,470.284,439,462,439z"/>
</g>
<path style="fill:#60AE6B;" d="M0,497V97c0-8.284,6.716-15,15-15h141c8.284,0,15,6.716,15,15v400c0,8.284-6.716,15-15,15H15
	C6.716,512,0,505.284,0,497z"/>
<g>
	<path style="fill:#FFD561;" d="M35,178v-21c0-8.284,6.716-15,15-15h41c8.284,0,15,6.716,15,15v21c0,8.284-6.716,15-15,15H50
		C41.716,193,35,186.284,35,178z"/>
	<path style="fill:#FFD561;" d="M35,260v-21c0-8.284,6.716-15,15-15h41c8.284,0,15,6.716,15,15v21c0,8.284-6.716,15-15,15H50
		C41.716,275,35,268.284,35,260z"/>
	<path style="fill:#FFD561;" d="M35,342v-21c0-8.284,6.716-15,15-15h41c8.284,0,15,6.716,15,15v21c0,8.284-6.716,15-15,15H50
		C41.716,357,35,350.284,35,342z"/>
	<path style="fill:#FFD561;" d="M35,424v-21c0-8.284,6.716-15,15-15h41c8.284,0,15,6.716,15,15v21c0,8.284-6.716,15-15,15H50
		C41.716,439,35,432.284,35,424z"/>
</g>
<path style="fill:#91E0FF;" d="M371,512H141V15c0-8.284,6.716-15,15-15h200c8.284,0,15,6.716,15,15V512z"/>
<path style="fill:#61CEF3;" d="M371,15c0-8.284-6.716-15-15-15H256v512h115V15z"/>
<path style="fill:#EEEEEE;" d="M311,512H201V393c0-8.284,6.716-15,15-15h80c8.284,0,15,6.716,15,15V512z"/>
<g>
	<path style="fill:#FFD561;" d="M306,193H206c-8.284,0-15-6.716-15-15v-21c0-8.284,6.716-15,15-15h100c8.284,0,15,6.716,15,15v21
		C321,186.284,314.284,193,306,193z"/>
	<path style="fill:#FFD561;" d="M306,111H206c-8.284,0-15-6.716-15-15V75c0-8.284,6.716-15,15-15h100c8.284,0,15,6.716,15,15v21
		C321,104.284,314.284,111,306,111z"/>
	<path style="fill:#FFD561;" d="M306,275H206c-8.284,0-15-6.716-15-15v-21c0-8.284,6.716-15,15-15h100c8.284,0,15,6.716,15,15v21
		C321,268.284,314.284,275,306,275z"/>
	<path style="fill:#FFD561;" d="M306,357H206c-8.284,0-15-6.716-15-15v-21c0-8.284,6.716-15,15-15h100c8.284,0,15,6.716,15,15v21
		C321,350.284,314.284,357,306,357z"/>
</g>
<path style="fill:#C6C6C6;" d="M311,393c0-8.284-6.716-15-15-15h-40v134h55V393z"/>
<g>
	<path style="fill:#FFB23D;" d="M306,142h-50v51h50c8.284,0,15-6.716,15-15v-21C321,148.716,314.284,142,306,142z"/>
	<path style="fill:#FFB23D;" d="M306,60h-50v51h50c8.284,0,15-6.716,15-15V75C321,66.716,314.284,60,306,60z"/>
	<path style="fill:#FFB23D;" d="M306,224h-50v51h50c8.284,0,15-6.716,15-15v-21C321,230.716,314.284,224,306,224z"/>
	<path style="fill:#FFB23D;" d="M306,306h-50v51h50c8.284,0,15-6.716,15-15v-21C321,312.716,314.284,306,306,306z"/>
</g>
<g>
</g>
<g>
</g>
<g>
</g>
<g>
</g>
<g>
</g>
<g>
</g>
<g>
</g>
<g>
</g>
<g>
</g>
<g>
</g>
<g>
</g>
<g>
</g>
<g>
</g>
<g>
</g>
<g>
</g>
</svg>
