<?xml version="1.0" encoding="iso-8859-1"?>
<!-- Generator: Adobe Illustrator 19.0.0, SVG Export Plug-In . SVG Version: 6.00 Build 0)  -->
<svg version="1.1" id="Capa_1" xmlns="http://www.w3.org/2000/svg" xmlns:xlink="http://www.w3.org/1999/xlink" x="0px" y="0px"
	 viewBox="0 0 512 512" style="enable-background:new 0 0 512 512;" xml:space="preserve">
<rect style="fill:#DDD8CE;" width="512" height="512"/>
<rect x="24" y="248" style="fill:#DDA137;" width="288" height="240"/>
<rect x="152" y="360" style="fill:#B53C33;" width="128" height="80"/>
<g>
	<rect x="64" y="416" style="fill:#201F2D;" width="48" height="72"/>
	<rect x="48" y="408" style="fill:#201F2D;" width="80" height="16"/>
	
		<rect x="169.359" y="392.005" transform="matrix(-0.7071 0.7071 -0.7071 -0.7071 610.5883 547.0966)" style="fill:#201F2D;" width="45.256" height="16"/>
	
		<rect x="209.363" y="392.001" transform="matrix(-0.7071 0.7071 -0.7071 -0.7071 678.8765 518.8027)" style="fill:#201F2D;" width="45.256" height="16"/>
	<rect x="48" y="272" style="fill:#201F2D;" width="16" height="16"/>
	<rect x="80" y="272" style="fill:#201F2D;" width="16" height="16"/>
	<rect x="112" y="272" style="fill:#201F2D;" width="16" height="16"/>
	<rect x="144" y="272" style="fill:#201F2D;" width="16" height="16"/>
	<rect x="176" y="272" style="fill:#201F2D;" width="16" height="16"/>
	<rect x="208" y="272" style="fill:#201F2D;" width="16" height="16"/>
	<rect x="240" y="272" style="fill:#201F2D;" width="16" height="16"/>
	<rect x="272" y="272" style="fill:#201F2D;" width="16" height="16"/>
	<rect x="48" y="304" style="fill:#201F2D;" width="16" height="16"/>
	<rect x="80" y="304" style="fill:#201F2D;" width="16" height="16"/>
	<rect x="112" y="304" style="fill:#201F2D;" width="16" height="16"/>
	<rect x="48" y="336" style="fill:#201F2D;" width="16" height="16"/>
	<rect x="80" y="336" style="fill:#201F2D;" width="16" height="16"/>
	<rect x="112" y="336" style="fill:#201F2D;" width="16" height="16"/>
	<rect x="144" y="304" style="fill:#201F2D;" width="16" height="16"/>
	<rect x="176" y="304" style="fill:#201F2D;" width="16" height="16"/>
	<rect x="208" y="304" style="fill:#201F2D;" width="16" height="16"/>
	<rect x="240" y="304" style="fill:#201F2D;" width="16" height="16"/>
	<rect x="272" y="304" style="fill:#201F2D;" width="16" height="16"/>
	<polygon style="fill:#201F2D;" points="16,32 480,32 480,496 496,496 496,16 16,16 	"/>
	<polygon style="fill:#201F2D;" points="440,104 456,104 456,56 408,56 408,72 428.688,72 290.344,210.344 301.656,221.656 
		440,83.312 	"/>
	<polygon style="fill:#201F2D;" points="418.344,357.656 436.688,376 336,376 336,392 436.688,392 418.344,410.344 429.656,421.656 
		467.312,384 429.656,346.344 	"/>
	<polygon style="fill:#201F2D;" points="136,44.688 98.344,82.344 109.656,93.656 128,75.312 128,224 144,224 144,75.312 
		162.344,93.656 173.656,82.344 	"/>
</g>
<g>
</g>
<g>
</g>
<g>
</g>
<g>
</g>
<g>
</g>
<g>
</g>
<g>
</g>
<g>
</g>
<g>
</g>
<g>
</g>
<g>
</g>
<g>
</g>
<g>
</g>
<g>
</g>
<g>
</g>
</svg>
