<?xml version="1.0" encoding="iso-8859-1"?>
<!-- Generator: Adobe Illustrator 19.0.0, SVG Export Plug-In . SVG Version: 6.00 Build 0)  -->
<svg version="1.1" id="Layer_1" xmlns="http://www.w3.org/2000/svg" xmlns:xlink="http://www.w3.org/1999/xlink" x="0px" y="0px"
	 viewBox="0 0 512 512" style="enable-background:new 0 0 512 512;" xml:space="preserve">
<path style="fill:#FCB33B;" d="M256,60c-8.291,0-15-6.709-15-15V15c0-8.291,6.709-15,15-15c8.291,0,15,6.709,15,15v30
	C271,53.291,264.291,60,256,60z"/>
<path style="fill:#F69838;" d="M271,45V15c0-8.291-6.709-15-15-15v60C264.291,60,271,53.291,271,45z"/>
<path style="fill:#FCB33B;" d="M271,105v332c0,8.399-6.599,15-15,15s-15-6.601-15-15V105c0-8.401,6.599-15,15-15S271,96.599,271,105
	z"/>
<path style="fill:#F69838;" d="M271,105v332c0,8.399-6.599,15-15,15V90C264.401,90,271,96.599,271,105z"/>
<path style="fill:#FCB33B;" d="M226,90H105c-8.291,0-15-6.709-15-15s6.709-15,15-15h121c8.291,0,15,6.709,15,15S234.291,90,226,90z"
	/>
<path style="fill:#F69838;" d="M407,90H286c-8.291,0-15-6.709-15-15s6.709-15,15-15h121c8.291,0,15,6.709,15,15S415.291,90,407,90z"
	/>
<path style="fill:#FFBC33;" d="M485.018,225.146c-5.186,0-10.225-2.695-13.008-7.5L407,105l-65.01,112.646
	c-4.16,7.148-13.345,9.609-20.493,5.493c-7.178-4.146-9.639-13.315-5.493-20.493L394.007,67.5c5.361-9.287,20.625-9.287,25.986,0
	l78.003,135.146c4.146,7.178,1.685,16.348-5.493,20.493C490.145,224.502,487.566,225.146,485.018,225.146z"/>
<path style="fill:#FFDE33;" d="M183.018,225.146c-5.186,0-10.225-2.695-13.008-7.5L105,105L39.99,217.646
	c-4.16,7.148-13.345,9.609-20.493,5.493c-7.178-4.146-9.639-13.315-5.493-20.493L92.007,67.5c5.361-9.287,20.625-9.287,25.986,0
	l78.003,135.146c4.146,7.178,1.685,16.348-5.493,20.493C188.145,224.502,185.566,225.146,183.018,225.146z"/>
<path style="fill:#A780FF;" d="M105,360C47.109,360,0,312.891,0,255s47.109-105,105-105s105,47.109,105,105S162.891,360,105,360z"/>
<path style="fill:#E6EEFF;" d="M105,180c-41.353,0-75,33.647-75,75s33.647,75,75,75s75-33.647,75-75S146.353,180,105,180z"/>
<path style="fill:#5C5F66;" d="M135,270h-30c-8.291,0-15-6.709-15-15v-30c0-8.291,6.709-15,15-15s15,6.709,15,15v15h15
	c8.291,0,15,6.709,15,15C150,263.291,143.291,270,135,270z"/>
<path style="fill:#4D97FF;" d="M407,360c-57.891,0-105-47.109-105-105s47.109-105,105-105s105,47.109,105,105S464.891,360,407,360z"
	/>
<path style="fill:#DAE2F2;" d="M407,180c-41.353,0-75,33.647-75,75s33.647,75,75,75s75-33.647,75-75S448.353,180,407,180z"/>
<path style="fill:#53565C;" d="M437,270h-30c-8.291,0-15-6.709-15-15v-30c0-8.291,6.709-15,15-15s15,6.709,15,15v15h15
	c8.291,0,15,6.709,15,15C452,263.291,445.291,270,437,270z"/>
<path style="fill:#7F838C;" d="M346,422H166c-24.901,0-45,20.099-45,45v30c0,8.399,6.599,15,15,15h240c8.401,0,15-6.601,15-15v-30
	C391,442.099,370.901,422,346,422z"/>
<path style="fill:#757982;" d="M391,467v30c0,8.399-6.599,15-15,15H256v-90h90C370.901,422,391,442.099,391,467z"/>
<path style="fill:#FFDE33;" d="M256,30c-24.901,0-45,20.099-45,45c0,24.899,20.099,45,45,45s45-20.101,45-45
	C301,50.099,280.901,30,256,30z"/>
<path style="fill:#FFBC33;" d="M301,75c0,24.899-20.099,45-45,45V30C280.901,30,301,50.099,301,75z"/>
<g>
</g>
<g>
</g>
<g>
</g>
<g>
</g>
<g>
</g>
<g>
</g>
<g>
</g>
<g>
</g>
<g>
</g>
<g>
</g>
<g>
</g>
<g>
</g>
<g>
</g>
<g>
</g>
<g>
</g>
</svg>
